<?xml version="1.0" encoding="utf-8"?>
<!-- Generator: Adobe Illustrator 19.0.0, SVG Export Plug-In . SVG Version: 6.00 Build 0)  -->
<svg version="1.1" id="Layer_1" xmlns="http://www.w3.org/2000/svg" xmlns:xlink="http://www.w3.org/1999/xlink" x="0px" y="0px"
	 viewBox="0 0 300 300" style="enable-background:new 0 0 300 300;" xml:space="preserve">
<style type="text/css">
	.st0{fill:#FFFFFF;}
	.st1{fill:url(#XMLID_9_);}
	.st2{fill:url(#XMLID_10_);}
	.st3{fill:url(#XMLID_11_);}
	.st4{fill:url(#XMLID_15_);}
	.st5{fill:url(#XMLID_17_);}
</style>
<g id="XMLID_5_">
	<path id="XMLID_8_" class="st0" d="M110.8,222.8c-1.6-0.1-3.1-0.2-4.4-0.3l-0.4,0c-17.3-1.8-34.9-9.5-49.7-21.9
		c-15.9-13.3-27.5-30.7-33.4-50.4c-3.8-12.8-5.1-26.2-3.7-39.8c0-0.2,0-0.6,0.1-0.9c1.3-11.3,4.3-22.3,9.1-32.7l0.2-0.9l0.2-0.1
		c13.5-28.4,38.6-49.4,70.9-59l0.4-0.1c16-5.8,32.7-8.8,49.7-8.8c34,0,65.6,11.9,89.2,33.4l1.2,1.1l-0.7,1.4
		c-7.1,13.1-17,31.5-26.9,49.9c-12.2,22.6-24.4,45.1-31.3,57.9L175,163l-88.4,26.4l2.3-4.3c0.4-0.8,40.7-74.3,61.1-111.5
		c-2.2-0.3-4.5-0.4-6.7-0.4c-26.6,0-52.6,17.6-64.7,43.7c-16.8,36.1-6.7,66.7,33.6,102.4l4.2,3.7L110.8,222.8z"/>
	<linearGradient id="XMLID_9_" gradientUnits="userSpaceOnUse" x1="34.7582" y1="171.6674" x2="175.3627" y2="56.6274">
		<stop  offset="0" style="stop-color:#2BB673"/>
		<stop  offset="0.2034" style="stop-color:#209A66"/>
		<stop  offset="0.5394" style="stop-color:#097C56"/>
		<stop  offset="0.817" style="stop-color:#006A4C"/>
		<stop  offset="1" style="stop-color:#006449"/>
	</linearGradient>
	<path id="XMLID_7_" class="st1" d="M106.5,220.5C106.5,220.5,106.5,220.5,106.5,220.5c1.5,0.2,2.9,0.3,4.3,0.3
		c-41-36.2-51.3-67.8-34.1-104.7c14.1-30.2,46.1-49.1,76.4-44.1C133,108.8,90.7,186.1,90.7,186.1l82.9-24.8c0,0,2.2-4.1,5.8-10.8
		C192,127.3,221.8,72,237.6,42.8C201.4,9.6,147.4,1.5,100.8,18.6l-0.5,0.2c-34.1,10.2-57.8,32.5-70,58.7c0,0,0,0,0,0.1
		c-4.8,10.3-7.8,21.3-9,32.3c-0.1,0.2-0.1,0.5-0.1,0.7c-1.4,13.1-0.2,26.4,3.6,39.1C36.9,190.3,72.7,217.2,106.5,220.5z"/>
	<path id="XMLID_6_" class="st0" d="M149.3,292.1C95.5,292.1,47,262.5,22.8,215c-8.4-16.6-16.2-48-13.2-58.1
		c2.1,8.3,6.9,19.9,10.6,27.2c18.5,36.3,55.9,58.8,97.6,58.8c0,0,0,0,0,0c17.9,0,35.9-4.3,52-12.6c38.6-19.7,58.8-52.2,56.7-91.5
		l-0.1-1.6l63.1-18.9l0.4,2.1c13,62.6-18.1,126.7-75.6,155.9C194,286.8,172.1,292.1,149.3,292.1
		C149.3,292.1,149.3,292.1,149.3,292.1z"/>
	<linearGradient id="XMLID_10_" gradientUnits="userSpaceOnUse" x1="107.5395" y1="225.0566" x2="238.2061" y2="110.3899">
		<stop  offset="0" style="stop-color:#A50D12"/>
		<stop  offset="1" style="stop-color:#ED1C24"/>
	</linearGradient>
	<path id="XMLID_12_" class="st2" d="M288.1,120.9l-59.5,17.9c1.9,37.2-15.5,71.9-57.8,93.4c-56.3,28.6-124.5,7.5-152.3-47.2
		c-3.8-7.4-6.6-15-8.5-22.8c1.4,17.6,6.2,35.2,14.6,51.9c35,68.7,119.6,95.9,189,60.6C271.6,245.1,300.7,181.2,288.1,120.9z"/>
	<rect id="XMLID_4_" x="276.4" y="57" class="st0" width="15.1" height="15.1"/>
	<linearGradient id="XMLID_11_" gradientUnits="userSpaceOnUse" x1="278.4173" y1="64.5448" x2="289.5635" y2="64.5448">
		<stop  offset="0" style="stop-color:#A50D12"/>
		<stop  offset="1" style="stop-color:#ED1C24"/>
	</linearGradient>
	<rect id="XMLID_13_" x="278.4" y="59" class="st3" width="11.1" height="11.1"/>
	<rect id="XMLID_3_" x="240.7" y="62.5" class="st0" width="22.7" height="22.4"/>
	<linearGradient id="XMLID_15_" gradientUnits="userSpaceOnUse" x1="242.6697" y1="73.7526" x2="261.3414" y2="73.7526">
		<stop  offset="0" style="stop-color:#A50D12"/>
		<stop  offset="1" style="stop-color:#ED1C24"/>
	</linearGradient>
	<rect id="XMLID_14_" x="242.7" y="64.5" class="st4" width="18.7" height="18.4"/>
	<rect id="XMLID_2_" x="266.5" y="84.4" class="st0" width="19.5" height="19.5"/>
	<linearGradient id="XMLID_17_" gradientUnits="userSpaceOnUse" x1="267.2323" y1="102.536" x2="282.899" y2="87.8694">
		<stop  offset="0" style="stop-color:#2BB673"/>
		<stop  offset="0.2034" style="stop-color:#209A66"/>
		<stop  offset="0.5394" style="stop-color:#097C56"/>
		<stop  offset="0.817" style="stop-color:#006A4C"/>
		<stop  offset="1" style="stop-color:#006449"/>
	</linearGradient>
	<rect id="XMLID_16_" x="268.5" y="86.4" class="st5" width="15.5" height="15.5"/>
</g>
</svg>
