<?xml version="1.0" encoding="UTF-8"?>
<svg xmlns="http://www.w3.org/2000/svg" xmlns:xlink="http://www.w3.org/1999/xlink" version="1.2" id="Layer_1" x="0px" y="0px" viewBox="0 0 383.4 389" overflow="visible" xml:space="preserve"> <g> <path fill="#FFFFFF" d="M383.4,228.4c-0.6,3-1.1,6.1-1.8,9.1c-9.1,40.3-44.5,67-85.7,64.5c-35.2-2.2-65.8-28.2-73.6-62.7 c-0.9-4-1.5-8-2.3-11.8c-6.4,0-12.4,0-19,0c2.5,8.3,5,16.2,7.4,24.2c1.7,0,3-0.1,4.4,0c3.8,0.4,6.5,3.1,6.4,6.5 c0,3.3-2.4,6.2-6.1,6.3c-8.2,0.2-16.5,0.3-24.7,0c-3.8-0.1-5.9-3-5.9-6.5c0.1-3.5,2.6-6.1,6.5-6.4c1.7-0.1,3.5,0,5.5,0 c-2.6-8.6-5-16.8-7.6-25c-0.7-2.1-1.6-4.2-2.8-6c-16.8-26.1-33.7-52.1-50.6-78.2c-0.7-1-1.4-2-2.3-3.4c-2.2,4.3-4.2,8.2-6.2,12.1 c43.3,28.5,47,81.2,24.9,114.6c-22.5,34-67,46.1-104.8,27.8c-35.5-17.2-53.8-61.1-41-98.2c7-20.2,19.6-35.8,38.3-46.1 c22.8-12.5,46.5-13.3,70.9-4.1c7.7-14.9,15.2-29.5,22.9-44.4c-0.7-0.2-1-0.4-1.4-0.4c-10,0-20-0.1-29.9,0c-4.2,0-7,2.5-7.1,6.1 c-0.1,3.7,2.7,6.3,7.1,6.5c2.1,0.1,4.3-0.1,6.4,0.1c3.6,0.3,6.2,3,6.3,6.3c0.1,3.3-2.4,6.3-5.9,6.5c-4.2,0.2-8.6,0.3-12.6-0.6 c-9.5-2.3-15.1-10.9-14.2-20.9c0.9-9.4,8.6-16.9,19.1-17.2c14.3-0.4,28.7-0.3,43-0.1c5.9,0.1,8.5,5,5.8,10.3c-3,6-6.2,12-9.2,17.9 c-0.5,1.1-1,2.2-1.5,3.3c0.4,0.2,0.5,0.3,0.6,0.3c30.7,0,61.4,0.1,92.1,0.1c0.8,0,2.1-0.5,2.4-1.1c3-5.7,5.9-11.4,9-17.6 c-5.3,0-9.9,0.1-14.5,0c-4.2-0.1-6.9-2.6-7-6.3c-0.2-3.8,2.4-6.8,6.8-6.9c14.1-0.2,28.2-0.2,42.3,0c4.3,0,7.1,3.1,7,6.7 c-0.1,3.7-2.9,6.3-7.3,6.4c-3.4,0.1-6.7-0.1-10.1,0.1c-1.1,0.1-2.7,0.8-3.2,1.7c-3.8,7.1-7.5,14.4-11.1,21.6 c-0.4,0.8-0.5,2.1-0.1,2.7c4.6,7.4,9.4,14.7,14.2,22.1c1.5-0.7,2.8-1.2,4-1.8c9.7-4.6,19.9-7.1,30.6-7.6 c35.8-1.7,68.4,19.6,80.5,53.3c2.4,6.7,3.5,13.9,5.2,20.9C383.4,218.4,383.4,223.4,383.4,228.4z M116.8,166.9 c-9.3,18-18.6,36.1-27.9,54.1c-0.7,1.3-1.3,2.7-2.3,3.8c-2.2,2.4-5,3-7.8,1.5s-4.1-4-3.3-7.2c0.4-1.5,1.1-3,1.8-4.5 c9.3-18.1,18.6-36.1,27.9-54.1c0.6-1.1,1-2.2,1.6-3.3c-27.4-12.2-67.3-3-85.5,31.2c-17.8,33.4-5.1,74.8,28,92.5 c33.3,17.8,74.7,5.5,92.6-27.7c17.8-32.9,5.4-72.3-23.2-89.9C118.1,164.6,117.5,165.7,116.8,166.9z M283.3,286.6 c30.8,8.5,62.2-4.8,78.1-32.5c15-26.1,10.4-60-11.2-81.8c-21-21.1-55.1-26.5-79.8-12.4c0.9,1.5,1.9,2.9,2.8,4.4 c10.7,16.6,21.5,33.3,32.2,49.9c0.3,0.5,0.6,1.1,1,1.6c1.8,2.5,2.5,5.2,0.9,8c-1.5,2.7-4.1,3.3-7.1,3.3c-20.6,0-41.2,0-61.7,0 c-1.5,0-3,0-4.7,0C235.2,251,252.8,278.1,283.3,286.6z M142.8,132.5c16.2,25.1,32.3,49.8,48.5,75c12.8-25.2,25.4-49.8,38.2-75 C200.5,132.5,172,132.5,142.8,132.5z M233.6,213.9c18.6,0,36.9,0,56,0c-10.2-15.9-20.2-31.2-30.3-47 C244.2,179.3,235.8,194.7,233.6,213.9z M202.9,213.8c6,0,11.5,0,17.4,0c1.2-11.3,4.2-22.2,9.8-32.3c5.5-9.9,12.7-18.4,22-25.7 c-3.6-5.5-7-10.9-10.9-16.9C228.2,164.2,215.7,188.8,202.9,213.8z"/> </g> </svg>