<?xml version="1.0" encoding="UTF-8"?> <svg xmlns="http://www.w3.org/2000/svg" overflow="visible" version="1.2" viewBox="0 0 479.9 480" xml:space="preserve"> <path d="m444 117.5c-0.1-0.2-0.1-0.3-0.2-0.5-0.1-0.3-0.2-0.5-0.3-0.7-2.6-17.5-18.1-30-36.8-29.6-9.3 0.2-18.8 0.1-27.9 0.1h-12.5-78.2-215.2c-21.7 0-36.9 14.8-36.9 35.9-0.1 93.8-0.1 166.2 0.1 234.7 0 5.5 1.3 11.3 3.6 16.1 6.2 13.1 17.3 19.8 32.9 19.8h34.6 24.1 24.2 57.5 193.9c10.2 0 18.4-2.8 25.2-8.6 6.2-5.3 10.1-12.4 12.1-22.4v-244.7l-0.2-0.1zm-257.1 121.4-131.2 121c-1.4-21.2-1.4-219.4 0-240.8l131.2 119.8zm224-132.8c-0.8 0.5-1.6 1-2.3 1.6-26.7 24.3-53.4 48.7-80 73-25.3 23-50.6 46.1-75.8 69.1-8.7 8-16.7 8.1-25 0.5-40.9-37.2-82.4-75.1-122.5-111.7l-35.4-32.3-0.3-0.3 341.3 0.1zm-209.9 145.6 13.4 12.1c9.5 8.6 19.5 12.1 30.4 10.5 7.2-1 13.8-4.3 20.7-10.5 3-2.7 6-5.4 9.3-8.4l4.1-3.7 132.6 122.2h-343.1l132.6-122.2zm223.4 108.4-131.4-121.2 130.9-119.5c1.4 20.9 1.8 219.2 0.5 240.7z" fill="#fff"></path> </svg> 