<?xml version="1.0" encoding="UTF-8"?> <!-- Generator: Adobe Illustrator 26.0.2, SVG Export Plug-In . SVG Version: 6.00 Build 0) --> <svg xmlns="http://www.w3.org/2000/svg" xmlns:xlink="http://www.w3.org/1999/xlink" version="1.1" id="Ebene_1" x="0px" y="0px" height="42px" width="330px" viewBox="0 0 329.85 41.58" overflow="visible" xml:space="preserve"> <g> <path fill="#FFFFFF" d="M3.7,2.18v22.67c0,0.93-0.73,1.65-1.65,1.65s-1.65-0.73-1.65-1.65V2.18c0-0.89,0.73-1.65,1.65-1.65 S3.7,1.29,3.7,2.18z M18.9,26.34c-0.23,0.1-0.46,0.17-0.73,0.17c-0.59,0-1.19-0.33-1.49-0.93c-1.02-2.11-2.54-4.53-4.36-6.51 c-1.95-2.08-3.44-3.63-5.68-4.92c-0.07-0.03-0.1-0.07-0.17-0.1c-0.07-0.07-0.13-0.1-0.2-0.17c-0.23-0.26-0.4-0.56-0.43-0.89 c-0.07-0.36,0-0.76,0.2-1.12c0.1-0.17,0.23-0.33,0.4-0.46L16.68,0.99c0.63-0.66,1.72-0.63,2.35,0.03c0.63,0.63,0.59,1.65-0.03,2.31 l-8.92,9.09c4.16,2.94,7.43,7.27,9.58,11.7C20.05,24.95,19.72,25.94,18.9,26.34z"></path> <path fill="#FFFFFF" d="M47.84,24.85c0,0.93-0.73,1.65-1.65,1.65h-15.8c-0.89,0-1.65-0.73-1.65-1.65V2.18 c0-0.93,0.76-1.65,1.65-1.65h15.46c0.93,0,1.65,0.73,1.65,1.65s-0.73,1.65-1.65,1.65H32.05v7.96h12.23c0.93,0,1.65,0.76,1.65,1.65 c0,0.93-0.73,1.65-1.65,1.65H32.05v8.1h14.14C47.11,23.2,47.84,23.92,47.84,24.85z"></path> <path fill="#FFFFFF" d="M77.38,3.11l-8.62,12.89v8.86c0,0.89-0.73,1.65-1.65,1.65c-0.89,0-1.65-0.76-1.65-1.65v-8.86L56.85,3.11 c-0.5-0.76-0.3-1.78,0.46-2.31c0.76-0.5,1.78-0.3,2.28,0.46l7.5,11.27l7.53-11.27c0.5-0.76,1.52-0.96,2.28-0.46 C77.67,1.32,77.87,2.35,77.38,3.11z"></path> <path fill="#FFFFFF" d="M92.89,16.03h-7.63c-0.93,0-1.65-0.76-1.65-1.65c0-0.93,0.73-1.65,1.65-1.65h7.63 c0.93,0,1.65,0.73,1.65,1.65C94.54,15.27,93.81,16.03,92.89,16.03z"></path> <path fill="#FFFFFF" d="M117.84,26.93c-1.85,0-3.63-0.36-5.32-1.09c-1.59-0.69-3.04-1.65-4.3-2.91c-1.26-1.22-2.21-2.68-2.91-4.3 c-0.73-1.65-1.06-3.4-1.06-5.19c0-1.82,0.36-3.57,1.06-5.22c0.69-1.59,1.69-3.04,2.94-4.26c1.26-1.26,2.74-2.21,4.36-2.91 c1.69-0.69,3.47-1.06,5.29-1.06c2.97,0,5.75,0.93,8.06,2.71c0.73,0.56,0.86,1.59,0.33,2.31c-0.56,0.73-1.62,0.86-2.31,0.33 c-1.75-1.35-3.83-2.05-6.08-2.05c-1.39,0-2.74,0.26-4.03,0.79c-1.22,0.53-2.35,1.26-3.3,2.21c-0.93,0.93-1.69,2.02-2.21,3.24 c-0.53,1.22-0.79,2.54-0.79,3.9s0.26,2.64,0.79,3.9c0.53,1.22,1.26,2.31,2.21,3.24c1.95,1.95,4.53,3.04,7.27,3.04 c1.22,0,2.38-0.23,3.5-0.63c1.09-0.4,2.08-0.99,2.97-1.72c0.69-0.59,1.72-0.5,2.31,0.2c0.59,0.69,0.5,1.75-0.2,2.31 c-1.19,0.99-2.51,1.75-3.93,2.28C121.02,26.63,119.43,26.93,117.84,26.93z"></path> <path fill="#FFFFFF" d="M148.15,27.06c-1.82,0-3.6-0.36-5.29-1.09c-1.62-0.69-3.07-1.65-4.33-2.91c-1.22-1.26-2.21-2.68-2.91-4.3 c-0.69-1.65-1.06-3.4-1.06-5.19c0-1.82,0.36-3.57,1.09-5.22c0.69-1.59,1.68-3.04,2.94-4.26c1.26-1.26,2.71-2.21,4.33-2.91 c1.68-0.69,3.47-1.06,5.32-1.06c3.6,0,6.97,1.42,9.48,4c1.22,1.22,2.15,2.68,2.81,4.26c0.69,1.65,1.02,3.4,1.02,5.19 c0,1.82-0.33,3.57-1.02,5.19c-0.66,1.62-1.62,3.07-2.84,4.3C155.15,25.64,151.78,27.06,148.15,27.06z M148.25,3.44 c-1.39,0-2.74,0.26-4.03,0.79c-1.26,0.53-2.35,1.26-3.3,2.21c-0.96,0.93-1.72,2.02-2.21,3.24c-0.56,1.22-0.83,2.54-0.83,3.9 s0.26,2.64,0.79,3.9c0.53,1.22,1.26,2.31,2.21,3.24c1.95,1.95,4.53,3.04,7.27,3.04c2.74,0,5.29-1.09,7.2-3.01 c0.93-0.93,1.62-2.02,2.15-3.24c0.5-1.26,0.76-2.58,0.76-3.93c0-2.71-1.02-5.25-2.88-7.14C153.5,4.49,150.95,3.44,148.25,3.44z"></path> <path fill="#FFFFFF" d="M172.74,26.5c-0.89,0-1.65-0.73-1.65-1.65V2.18c0-0.93,0.76-1.65,1.65-1.65h9.81c0.13,0,0.93,0,1.95,0.26 c1.45,0.36,2.74,1.09,3.73,2.05c0.73,0.73,1.32,1.62,1.72,2.64c0.43,1.12,0.66,2.41,0.66,3.83c0,3.14-1.32,5.52-3.8,6.94 c-1.78,1.02-4.16,1.52-7.1,1.52c-0.89,0-1.65-0.73-1.65-1.65c0-0.93,0.76-1.65,1.65-1.65c2.35,0,4.2-0.36,5.45-1.09 c1.45-0.83,2.15-2.11,2.15-4.06c0-1.32-0.26-2.41-0.73-3.24c-0.36-0.66-0.89-1.16-1.52-1.52c-1.19-0.69-2.41-0.73-2.51-0.73h-8.16 v21.02C174.39,25.77,173.66,26.5,172.74,26.5z"></path> <path fill="#FFFFFF" d="M219.37,3.11l-8.62,12.89v8.86c0,0.89-0.73,1.65-1.65,1.65c-0.89,0-1.65-0.76-1.65-1.65v-8.86l-8.59-12.89 c-0.5-0.76-0.3-1.78,0.46-2.31c0.76-0.5,1.78-0.3,2.28,0.46l7.5,11.27l7.53-11.27c0.5-0.76,1.52-0.96,2.28-0.46 C219.67,1.32,219.87,2.35,219.37,3.11z"></path> <path fill="#FFFFFF" d="M229.81,24.02c0,1.39-1.09,2.48-2.45,2.48c-1.39,0-2.48-1.09-2.48-2.48c0-1.35,1.09-2.48,2.48-2.48 C228.72,21.55,229.81,22.67,229.81,24.02z"></path> <path fill="#FFFFFF" d="M251,26.93c-1.85,0-3.63-0.36-5.32-1.09c-1.59-0.69-3.04-1.65-4.3-2.91c-1.26-1.22-2.21-2.68-2.91-4.3 c-0.73-1.65-1.06-3.4-1.06-5.19c0-1.82,0.36-3.57,1.06-5.22c0.69-1.59,1.69-3.04,2.94-4.26c1.26-1.26,2.74-2.21,4.36-2.91 c1.69-0.69,3.47-1.06,5.29-1.06c2.97,0,5.75,0.93,8.06,2.71c0.73,0.56,0.86,1.59,0.33,2.31c-0.56,0.73-1.62,0.86-2.31,0.33 C255.4,4,253.32,3.3,251.07,3.3c-1.39,0-2.74,0.26-4.03,0.79c-1.22,0.53-2.35,1.26-3.3,2.21c-0.93,0.93-1.68,2.02-2.21,3.24 c-0.53,1.22-0.79,2.54-0.79,3.9s0.26,2.64,0.79,3.9c0.53,1.22,1.26,2.31,2.21,3.24c1.95,1.95,4.53,3.04,7.27,3.04 c1.22,0,2.38-0.23,3.5-0.63c1.09-0.4,2.08-0.99,2.97-1.72c0.69-0.59,1.72-0.5,2.31,0.2c0.59,0.69,0.5,1.75-0.2,2.31 c-1.19,0.99-2.51,1.75-3.93,2.28C254.17,26.63,252.59,26.93,251,26.93z"></path> <path fill="#FFFFFF" d="M281.3,27.06c-1.82,0-3.6-0.36-5.29-1.09c-1.62-0.69-3.07-1.65-4.33-2.91c-1.22-1.26-2.21-2.68-2.91-4.3 c-0.69-1.65-1.06-3.4-1.06-5.19c0-1.82,0.36-3.57,1.09-5.22c0.69-1.59,1.68-3.04,2.94-4.26c1.26-1.26,2.71-2.21,4.33-2.91 c1.68-0.69,3.47-1.06,5.32-1.06c3.6,0,6.97,1.42,9.48,4c1.22,1.22,2.15,2.68,2.81,4.26c0.69,1.65,1.02,3.4,1.02,5.19 c0,1.82-0.33,3.57-1.02,5.19c-0.66,1.62-1.62,3.07-2.84,4.3C288.31,25.64,284.94,27.06,281.3,27.06z M281.4,3.44 c-1.39,0-2.74,0.26-4.03,0.79c-1.26,0.53-2.35,1.26-3.3,2.21c-0.96,0.93-1.72,2.02-2.21,3.24c-0.56,1.22-0.83,2.54-0.83,3.9 s0.26,2.64,0.79,3.9c0.53,1.22,1.26,2.31,2.21,3.24c1.95,1.95,4.53,3.04,7.27,3.04s5.29-1.09,7.2-3.01 c0.93-0.93,1.62-2.02,2.15-3.24c0.5-1.26,0.76-2.58,0.76-3.93c0-2.71-1.02-5.25-2.87-7.14C286.66,4.49,284.11,3.44,281.4,3.44z"></path> <path fill="#FFFFFF" d="M328.2,26.5c-0.89,0-1.69-0.76-1.69-1.65V8.16l-8.13,13.65c-0.3,0.43-0.79,0.66-1.32,0.66 c-0.53,0-1.02-0.23-1.35-0.66l-8.16-13.65v16.69c0,0.89-0.73,1.65-1.65,1.65c-0.89,0-1.65-0.76-1.65-1.65V2.11 c0-0.73,0.46-1.35,1.16-1.59c0.66-0.23,1.42,0.03,1.85,0.59l9.81,16.56l9.78-16.56c0.46-0.56,1.19-0.83,1.88-0.59 c0.66,0.23,1.12,0.86,1.12,1.59v22.73C329.85,25.74,329.13,26.5,328.2,26.5z"></path> </g> <g> <path fill="#FFFFFF" d="M2.66,41.39h-1.5v-7.18h3.28c1.39,0,2.23,0.89,2.23,2.3c0,0.65-0.36,2.29-2.29,2.29H2.66V41.39z M4.05,37.57c1.12,0,1.12-0.8,1.12-1.12c0-0.7-0.39-0.99-1.32-0.99H2.66v2.11H4.05z"></path> <path fill="#FFFFFF" d="M16.02,34.03c0.95,0,3.45,0.41,3.45,3.78s-2.5,3.78-3.45,3.78c-0.95,0-3.45-0.41-3.45-3.78 S15.07,34.03,16.02,34.03z M16.02,40.31c0.81,0,1.95-0.5,1.95-2.51s-1.14-2.51-1.95-2.51c-0.81,0-1.95,0.5-1.95,2.51 S15.21,40.31,16.02,40.31z"></path> <path fill="#FFFFFF" d="M24.94,34.22h1.6c0.92,3.93,1.01,4.43,1.14,5.25h0.02c0.13-0.75,0.24-1.48,1-5.25h1.59 c0.84,3.94,0.91,4.32,1.07,5.25h0.02c0.12-0.68,0.24-1.3,1.17-5.25h1.52l-2.02,7.18h-1.44c-0.74-3.52-0.87-4.22-1.11-5.6h-0.02 c-0.22,1.38-0.34,1.9-1.11,5.6h-1.4L24.94,34.22z"></path> <path fill="#FFFFFF" d="M45.33,35.49h-3.81V37h3.5v1.27h-3.5v1.86h3.98v1.27h-5.45v-7.18h5.28V35.49z"></path> <path fill="#FFFFFF" d="M51.78,34.22h3.63c1.91,0,2.26,1.41,2.26,2.03c0,0.79-0.4,1.47-1.11,1.71c0.59,0.26,0.91,0.48,0.91,1.82 c0,1.05,0,1.31,0.32,1.43v0.19h-1.66c-0.1-0.34-0.16-0.71-0.16-1.45c0-0.98-0.06-1.36-1.17-1.36h-1.55v2.81h-1.47V34.22z M55.01,37.38c0.78,0,1.16-0.27,1.16-0.98c0-0.38-0.17-0.94-1.05-0.94h-1.87v1.92H55.01z"></path> <path fill="#FFFFFF" d="M69.35,35.49h-3.81V37h3.5v1.27h-3.5v1.86h3.98v1.27h-5.45v-7.18h5.28V35.49z"></path> <path fill="#FFFFFF" d="M75.8,34.22h3.17c2.42,0,2.92,2.06,2.92,3.42c0,1.54-0.61,3.76-2.98,3.76H75.8V34.22z M77.27,40.16h1.46 c1.22,0,1.63-1.23,1.63-2.41c0-2.12-1.01-2.29-1.65-2.29h-1.44V40.16z"></path> <path fill="#FFFFFF" d="M95.8,34.22h3.49c1.76,0,2.21,1.1,2.21,1.84c0,1.03-0.58,1.32-0.88,1.47c0.88,0.33,1.11,1.03,1.11,1.74 c0,0.57-0.24,1.11-0.62,1.48c-0.41,0.4-0.8,0.65-2.27,0.65H95.8V34.22z M97.24,37.03H99c0.59,0,1.06-0.23,1.06-0.8 c0-0.59-0.42-0.77-1.1-0.77h-1.72V37.03z M97.24,40.16h1.84c0.73,0,1.15-0.32,1.15-1.05c0-0.63-0.54-0.87-1.08-0.87h-1.91V40.16z"></path> <path fill="#FFFFFF" d="M111.14,41.39h-1.5v-2.71l-2.48-4.47h1.77l1.49,3.12l1.42-3.12h1.7l-2.4,4.49V41.39z"></path> <path fill="#FFFFFF" d="M128.3,39.19c0.01,0.4,0.21,1.16,1.52,1.16c0.71,0,1.5-0.17,1.5-0.93c0-0.56-0.54-0.71-1.3-0.89l-0.77-0.18 c-1.16-0.27-2.28-0.53-2.28-2.11c0-0.8,0.43-2.21,2.76-2.21c2.2,0,2.79,1.44,2.8,2.32h-1.44c-0.04-0.32-0.16-1.08-1.47-1.08 c-0.57,0-1.25,0.21-1.25,0.86c0,0.56,0.46,0.68,0.76,0.75l1.75,0.43c0.98,0.24,1.88,0.64,1.88,1.93c0,2.16-2.2,2.35-2.83,2.35 c-2.62,0-3.07-1.51-3.07-2.4H128.3z"></path> <path fill="#FFFFFF" d="M143.54,36.57c-0.12-0.43-0.35-1.24-1.59-1.24c-0.72,0-1.78,0.48-1.78,2.51c0,1.29,0.51,2.45,1.78,2.45 c0.83,0,1.41-0.47,1.59-1.35h1.5c-0.3,1.56-1.32,2.65-3.12,2.65c-1.91,0-3.28-1.29-3.28-3.77c0-2.51,1.45-3.79,3.3-3.79 c2.15,0,3.02,1.48,3.1,2.54H143.54z"></path> <path fill="#FFFFFF" d="M152.72,38.18v3.22h-1.5v-7.18h1.5v2.72h2.8v-2.72h1.5v7.18h-1.5v-3.22H152.72z"></path> <path fill="#FFFFFF" d="M165.09,40.09h3.57v1.3h-5.07v-7.18h1.5V40.09z"></path> <path fill="#FFFFFF" d="M180.4,38.89c0,1.89-1.14,2.7-2.95,2.7c-0.66,0-1.64-0.16-2.28-0.87c-0.39-0.44-0.54-1.02-0.56-1.74v-4.76 h1.53v4.66c0,1,0.58,1.44,1.28,1.44c1.03,0,1.45-0.5,1.45-1.37v-4.73h1.53V38.89z M177.16,33.4h-1.26v-1.15h1.26V33.4z M179.11,33.4h-1.26v-1.15h1.26V33.4z"></path> <path fill="#FFFFFF" d="M188.03,39.19c0.01,0.4,0.21,1.16,1.52,1.16c0.71,0,1.5-0.17,1.5-0.93c0-0.56-0.54-0.71-1.3-0.89 l-0.77-0.18c-1.16-0.27-2.28-0.53-2.28-2.11c0-0.8,0.43-2.21,2.76-2.21c2.2,0,2.79,1.44,2.8,2.32h-1.44 c-0.04-0.32-0.16-1.08-1.47-1.08c-0.57,0-1.25,0.21-1.25,0.86c0,0.56,0.46,0.68,0.76,0.75l1.75,0.43c0.98,0.24,1.88,0.64,1.88,1.93 c0,2.16-2.2,2.35-2.83,2.35c-2.62,0-3.07-1.51-3.07-2.4H188.03z"></path> <path fill="#FFFFFF" d="M199.83,39.19c0.01,0.4,0.21,1.16,1.52,1.16c0.71,0,1.5-0.17,1.5-0.93c0-0.56-0.54-0.71-1.3-0.89 l-0.77-0.18c-1.16-0.27-2.28-0.53-2.28-2.11c0-0.8,0.43-2.21,2.76-2.21c2.2,0,2.79,1.44,2.8,2.32h-1.44 c-0.04-0.32-0.16-1.08-1.47-1.08c-0.57,0-1.25,0.21-1.25,0.86c0,0.56,0.46,0.68,0.76,0.75l1.75,0.43c0.98,0.24,1.88,0.64,1.88,1.93 c0,2.16-2.2,2.35-2.83,2.35c-2.62,0-3.07-1.51-3.07-2.4H199.83z"></path> <path fill="#FFFFFF" d="M215.81,35.49H212V37h3.5v1.27H212v1.86h3.98v1.27h-5.45v-7.18h5.28V35.49z"></path> <path fill="#FFFFFF" d="M223.76,40.09h3.57v1.3h-5.07v-7.18h1.5V40.09z"></path> <path fill="#FFFFFF" d="M235.11,41.39h-1.5v-1.46h1.5V41.39z"></path> <path fill="#FFFFFF" d="M241.62,34.22h3.17c2.42,0,2.92,2.06,2.92,3.42c0,1.54-0.61,3.76-2.98,3.76h-3.11V34.22z M243.09,40.16 h1.46c1.22,0,1.63-1.23,1.63-2.41c0-2.12-1.01-2.29-1.65-2.29h-1.44V40.16z"></path> <path fill="#FFFFFF" d="M255.39,41.39h-1.5v-7.18h1.5V41.39z"></path> <path fill="#FFFFFF" d="M263.01,39.19c0.01,0.4,0.21,1.16,1.52,1.16c0.71,0,1.5-0.17,1.5-0.93c0-0.56-0.54-0.71-1.3-0.89 l-0.77-0.18c-1.16-0.27-2.28-0.53-2.28-2.11c0-0.8,0.43-2.21,2.76-2.21c2.2,0,2.79,1.44,2.8,2.32h-1.44 c-0.04-0.32-0.16-1.08-1.47-1.08c-0.57,0-1.25,0.21-1.25,0.86c0,0.56,0.46,0.68,0.76,0.75l1.75,0.43c0.98,0.24,1.88,0.64,1.88,1.93 c0,2.16-2.2,2.35-2.83,2.35c-2.62,0-3.07-1.51-3.07-2.4H263.01z"></path> <path fill="#FFFFFF" d="M278.26,36.57c-0.12-0.43-0.35-1.24-1.59-1.24c-0.72,0-1.78,0.48-1.78,2.51c0,1.29,0.51,2.45,1.78,2.45 c0.83,0,1.41-0.47,1.59-1.35h1.5c-0.3,1.56-1.32,2.65-3.12,2.65c-1.91,0-3.28-1.29-3.28-3.77c0-2.51,1.45-3.79,3.3-3.79 c2.15,0,3.02,1.48,3.1,2.54H278.26z"></path> <path fill="#FFFFFF" d="M289.1,34.03c0.95,0,3.45,0.41,3.45,3.78s-2.5,3.78-3.45,3.78s-3.45-0.41-3.45-3.78 S288.15,34.03,289.1,34.03z M289.1,40.31c0.81,0,1.95-0.5,1.95-2.51s-1.14-2.51-1.95-2.51s-1.95,0.5-1.95,2.51 S288.29,40.31,289.1,40.31z"></path> <path fill="#FFFFFF" d="M304.56,38.89c0,1.89-1.14,2.7-2.95,2.7c-0.66,0-1.64-0.16-2.28-0.87c-0.39-0.44-0.54-1.02-0.56-1.74v-4.76 h1.53v4.66c0,1,0.58,1.44,1.28,1.44c1.03,0,1.45-0.5,1.45-1.37v-4.73h1.53V38.89z"></path> <path fill="#FFFFFF" d="M315.52,34.22h1.4v7.18h-1.5l-2.93-5.12h-0.02v5.12h-1.4v-7.18h1.58l2.85,5h0.02V34.22z"></path> <path fill="#FFFFFF" d="M326.52,41.39h-1.5v-5.91h-2.17v-1.27h5.84v1.27h-2.17V41.39z"></path> </g> </svg> 