<?xml version="1.0" encoding="UTF-8"?>
<svg xmlns="http://www.w3.org/2000/svg" xmlns:xlink="http://www.w3.org/1999/xlink" version="1.2" id="Layer_1" x="0px" y="0px" viewBox="0 0 383.4 389" overflow="visible" xml:space="preserve"> <g> <path fill="#FFFFFF" d="M383.4,356.1c-0.6,2.1-1.1,4.2-1.9,6.3c-4.9,13.8-14.5,22.4-28.7,25.8c-0.8,0.2-1.6,0.5-2.4,0.8 c-58.9,0-117.8,0-176.7,0c-0.3-0.2-0.6-0.5-0.9-0.6c-20.6-4.5-32.1-18.8-32.1-39.9c0-19.1,0-38.2,0-57.3c0-1.3,0-2.7,0-4.3 c-6.2-0.3-10.8-2.8-13.1-8.5c-1.1-2.7-3-4.3-5.9-4.4c-3.1-0.1-5.1,1.6-6.3,4.4c-2.4,5.7-6.8,8.3-12.9,8.3c-27.5,0-54.9,0.1-82.4,0 c-12.2-0.1-19.9-8.1-20-20.4c0-11.6,0-23.2,0-34.8c0-13.6,7.7-21.4,21.3-21.4c26,0,51.9,0.1,77.9-0.1c7.7-0.1,13.5,1.8,16.8,9.5 c2,4.7,8.7,4.7,10.8,0.1c2.8-6.1,7-9.5,13.6-9.7c0.1-0.7,0.2-1,0.2-1.4c0.2-14.5,0.5-28.9,0.7-43.4c0-0.6-0.3-1.5-0.8-1.9 c-4-3.7-8.2-7.3-12.2-10.9c-8.9,6.4-14.6,7.9-21.6,4.5c-4-2-7.5-5.2-11-8.2c-4.3-3.7-5.5-8.5-3.7-13.9c1-3,0.9-5.7-1.6-7.9 c-2.5-2.2-5.2-1.8-8-0.5c-5.1,2.3-9.7,1.4-13.9-2.2c-3-2.6-5.9-5.4-8.9-8c-17.5-16-35-32-52.5-48C-1.7,60.1-2.4,48.9,5.5,40 c8.3-9.3,16.6-18.6,25.1-27.8c7.6-8.2,19-8.8,27.1-1.4c20.6,18.7,41.1,37.5,61.6,56.3c4.2,3.8,5.6,8.5,3.9,13.9 c-0.9,3-1.1,5.7,1.4,7.9c2.6,2.4,5.3,1.5,8.4,0.6c2.9-0.8,6.6-1.6,9-0.4c7.5,3.8,14.1,9,16.1,18c1.4,6.2-0.7,11.5-4.4,16.6 c4,3.6,7.8,7.1,11.8,10.5c0.7,0.6,2,0.7,3,0.7c4.6-0.4,9.1-1.3,13.7-1.3c42-0.1,84.1-0.1,126.1-0.1c1.5,0,2.9,0,4.6,0 c0-12.6,0.1-24.7,0-36.8c0-3.2-0.3-6.5-0.8-9.7c-3.6-23.1-24.5-41.8-48-43.1c-23.5-1.3-45.6,14.8-51.5,38 c-1.3,5.1-1.4,10.6-2.2,15.9c-1.3,9.5-9.3,16.4-18.9,16.4c-9.5,0-17.8-6.9-18.8-16.4c-0.5-4.4-0.3-9,0.3-13.4 c5.3-41.9,37.4-73.4,79.4-78.2c51.2-5.8,97.4,34.4,98.6,86c0.3,12.8,0.1,25.7,0.1,38.5c0,2.4,0.7,3.3,3.1,4 c13.7,3.7,22.7,12.4,27.2,25.8c0.7,2,1.1,4,1.7,6C383.4,229.8,383.4,293,383.4,356.1z M155,285.1c-0.8,0.4-1.5,1.9-1.5,2.9 c-0.1,21.5-0.2,42.9,0.1,64.4c0.2,13.1,11.5,23.6,25.1,23.9c9.5,0.2,19,0,28.4,0c45.2,0,90.3,0,135.5,0c17.5,0,28-10.5,28-27.9 c0-58.1,0-116.3,0-174.4c0-17-10.5-27.6-27.5-27.6c-53.2,0-106.3,0-159.5,0c-1.2,0-2.4,0-3.6,0c-0.3,0.4-0.5,0.8-0.8,1.1 c0.9,0.6,1.9,1,2.7,1.7c20.8,18.7,41.5,37.4,62.3,56.2c1.5,1.4,2.7,1.6,4.6,0.9c17.3-6.2,35.8,0.2,45.5,15.4 c9.6,15.2,7.6,34.4-5.2,47.4c-1.7,1.7-1.9,3.2-1.5,5.3c1.9,9.1,3.7,18.3,5.6,27.5c2.9,13.8-4.9,23.3-19,23.4 c-8.4,0-16.7,0.1-25.1,0c-13.1-0.1-20.9-9.4-18.5-22.2c1.8-9.7,3.9-19.3,5.8-28.9c0.7-3.6-1.2-6.3-4.7-6.4c-21.5,0-42.9,0-64.4,0 c-0.2,0-0.5,0.1-1.1,0.3C165.5,275.7,162,281.5,155,285.1z M99.9,274.5c2.3,0,3.4-0.6,4.5-2.7c3.4-6.7,9.1-10.3,16.5-10.4 c7.4-0.2,13.2,3.1,17.1,9.5c1.9,3.1,5.8,4.3,10.6,2.9c3.5-1,4.8-3.7,4.8-7.2c0-10,0-19.9,0-29.9c0-2.2,0.1-4.5,0-6.7 c-0.2-4.3-2.5-6.7-6.7-7c-1.4-0.1-2.8,0-4.1-0.2c-2.2-0.3-3.2,0.6-4.2,2.5c-3.5,6.6-9,10.2-16.6,10.3c-7.7,0.1-13.5-3.3-17.2-9.9 c-1.2-2.2-2.4-2.9-4.9-2.9c-26.2,0.1-52.4,0-78.6,0.1c-6.2,0-8.4,2.2-8.4,8.3c0,11.5,0,22.9,0,34.4c0,6.2,2.1,8.4,8.2,8.4 c13.1,0,26.2,0,39.3,0c0,0.1,0,0.3,0,0.4C73.5,274.4,86.7,274.4,99.9,274.5z M109.8,82.8c2.3-5.3-0.9-8.2-4.5-11.4 C86.9,54.9,68.8,38.2,50.6,21.5c-4.5-4.2-7.6-4.1-11.7,0.6C31,30.7,23.3,39.3,15.6,47.9c-4,4.4-3.7,7.4,0.7,11.5 C35.6,77.3,55,95,74.3,112.9c1.7,1.6,2.9,1.8,5.1,1c7-2.5,13.6-1.6,19.2,3.4c5.7,5,8.2,11.4,6.1,18.8c-1.5,5.3,3.1,6.2,5.5,8.4 c2.4,2.2,5.6,1.7,7.8-0.7c8.9-9.6,17.6-19.4,26.3-29.2c2.2-2.6,1.8-5.6-0.5-8.2c-0.8-0.9-1.8-1.7-2.6-2.7c-1.7-2.2-3.4-2.6-6.3-1.5 c-12.5,4.5-25.3-5-25.2-18.3C109.8,83.6,109.7,83.1,109.8,82.8z M338,133.4c0.2-0.4,0.4-0.6,0.4-0.8c-0.3-17.8,1.9-35.7-1.5-53.4 c-7-36-40-61.6-77.5-60.7c-36.1,0.9-67.6,28.5-73,64.2c-0.5,3.6-0.8,7.2-1,10.8c-0.2,4.8,2.1,7.7,6,8c3.8,0.2,6.6-2.5,6.7-7.3 c0.3-10.5,2.8-20.4,7.9-29.7c13-23.8,40.2-37.2,66.1-32.4c27.6,5.1,49.6,27,52.8,54.1c1.4,12.3,0.7,24.9,1,37.3 c0.1,3.1,0,6.2,0,9.8C330.2,133.4,334.2,133.4,338,133.4z M266.4,225.3c7.5,6.4,10.1,14.4,7.3,23.8c-2.9,9.6-9.5,15.7-19.3,17.8 c-2.9,0.6-4,1.4-4.5,4.5c-2,11.4-4.5,22.7-6.7,34.1c-0.9,4.4,0.9,6.8,5.4,6.9c9,0.1,18,0.1,26.9,0c4.7-0.1,6.3-2.4,5.3-7.7 c-2.1-10.5-4.1-21-6.5-31.5c-1.1-4.9-0.3-8.3,4-11.6c9.2-7.1,11.9-19.4,7.2-30c-4.7-10.6-15.4-16.3-28-14.5 C260.8,220.2,263.5,222.8,266.4,225.3z M145.1,133.2c-2.8,3.2-5.5,6.2-8.5,9.4c7.5,6.7,14.9,13.3,22.2,19.8 c24.2,21.6,48.4,43.2,72.7,64.6c1.5,1.3,3.9,2.1,5.9,2.2c4.3,0.3,8.7,0.1,13.1,0.1c0.1-0.3,0.3-0.5,0.4-0.8 C215.8,196.9,180.6,165.2,145.1,133.2z M153.4,174.8c0,6.4,0,11.8,0,17.2c0,3.4,0.2,6.7,0,10.1c-0.3,5.3-0.3,9.7,5.6,12.8 c5,2.6,6.7,8.4,7.3,14.3c15.7,0,31.4,0,48.1,0C193.9,210.8,174,193.1,153.4,174.8z M166.4,242.4c0,4.1,0,8.1,0,12.3 c1.1,0.1,2.2,0.2,3.2,0.2c26.1,0,52.1,0,78.2,0c8.3,0,13.5-4.6,14-12.5C230.1,242.4,198.3,242.4,166.4,242.4z"/> </g> </svg>