<?xml version="1.0" encoding="UTF-8"?> <svg xmlns="http://www.w3.org/2000/svg" xmlns:xlink="http://www.w3.org/1999/xlink" version="1.2" id="Layer_1" x="0px" y="0px" viewBox="0 0 383.4 389" overflow="visible" xml:space="preserve"> <g> <path fill="#FFFFFF" d="M383.4,258.9c-0.3,0.9-0.6,1.9-0.8,2.8c-4.1,28.6-28.9,51.9-57.8,54c-44.9,3.3-78.5-37.7-66.7-81.1 c6.7-24.5,29.2-43.6,54.3-46c27.1-2.6,52.7,11,63.9,34.6c3.3,7,4.8,14.8,7.1,22.3C383.4,250,383.4,254.5,383.4,258.9z M268.4,252.2 c0.2,28.3,23.2,51,51.4,50.9c28-0.1,50.8-23.1,50.8-51.1c0-28.2-23-51.1-51.2-51.1C291.2,201.1,268.2,224.1,268.4,252.2z"></path> <path fill="#FFFFFF" d="M90.7,149.7c-4.9,0.3-7.5-2.2-7.5-7.1c-0.1-16.5-0.1-32.9,0-49.4c0-4.5,2.5-7,6.9-7.1 c12.2-0.4,23.1,3.2,32.6,10.8c2.1,1.7,4,3.5,6.3,5.5c3.8-8,7.6-15.5,11.1-23.2c1.9-4.1,4.5-6.2,9.2-5.9c5.5,0.3,11,0.1,16.5,0.1 c6.5,0,13-0.1,19.5,0.1c3.7,0.1,6.3,2.7,6.4,6.1c0.1,3.3-2.4,6-6,6.5c-1.1,0.2-2.2,0.1-3.4,0.1c-9.5,0-19,0-28.4,0 c-1.1,0-2.9,0.3-3.2,1c-3,5.8-5.7,11.7-8.8,18.1c2.2,0,3.5,0,4.9,0c15.1,0,30.2,0,45.3,0c17.9,0.1,31.4,7.6,39.9,23.6 c0.9,1.7,1.8,2.2,3.7,2.2c34.3-0.1,68.6-0.1,102.9-0.2c6.8,0,12.7,2.3,17.7,6.9c11.3,10.4,10.3,25-2.5,31.6c1.2,0.6,2.4,1,3.4,1.7 c5.8,3.4,11.6,6.8,17.2,10.5c3,2,3.5,5.5,1.8,8.3c-1.6,2.6-4,3.8-7,2.9c-1.4-0.4-2.7-1.3-3.9-2.2c-15.7-11.4-33.3-16.5-52.5-14.5 c-31.1,3.2-52.4,20-64.5,48.6c-5.1,12.1-5.7,24.9-5.2,37.8c0.4,10-4.6,15.2-14.5,15.2c-4.9,0-9.7,0-14.6,0c-17.8,0-35.7,0.1-53.5,0 c-9.8-0.1-17.2-5.7-19.1-14.7c-0.6-2.8-0.5-5.7-0.5-8.6c-0.1-16.9-4.3-32.5-14.2-46.4c-6.3-8.8-14-16.1-23.6-21.8 c-1.9,3.9-3.7,7.6-5.4,11.2c33.9,22,36.7,63.6,19.6,89.5c-16.9,25.7-50.6,35.8-79.2,23.1C9.7,297.5-5.7,265.5,2.3,236 c4.1-15.2,12.3-27.5,25.3-36.4c18.1-12.5,37.7-14.4,58.6-7.8c1.9-3.9,3.6-7.5,5.4-11.3c-12.9-4.8-25.9-6.7-39-4 c-8.2,1.7-16.1,4.9-24.1,7.6c-4,1.3-7.3,0.2-8.8-3.2c-1.4-3.3-0.1-6.5,3.5-8.3c16.9-8.4,34.6-11.7,53.3-8.9 c7,1.1,13.8,3.1,20.9,4.7c3.2-6.7,6.5-13.6,9.9-20.6C101.5,148.5,96.1,149.3,90.7,149.7z M81.5,231.2c-0.4,1,0.5,3,1.4,4 c12.3,14.4,4.7,36.8-13.9,40.4c-10,2-18.3-1.2-24.5-9.1c-6.4-8.2-7.2-17.5-2.3-26.7c4.7-8.9,12.5-13.5,22.6-13 c3.7,0.2,5.2-1.1,6.6-4.2c2.7-6.3,5.8-12.4,8.8-18.5c-21.3-8.2-50.1,0.6-62.3,26.1c-12.2,25.4-1.6,55.1,23.9,67.9 c24.4,12.3,54.4,2.1,67.8-22.9c11.9-22.2,3.5-53.3-17.8-65.5C88.2,216.8,84.7,223.9,81.5,231.2z M118.4,181.1 c0.8,0.5,2.1,0.7,3.1,0.7c26.8,0,53.6,0,80.5,0c14,0,21.7,7.7,21.7,21.8c0.1,11.9-4.7,19.5-14,22c-2.6,0.7-5.4,0.9-8.1,0.9 c-15.8,0.1-31.7,0-47.5,0c-1.3,0-2.7,0-4.3,0c0.8,4,1.8,7.4,2.4,11c1.2,7.1,1.2,18.6,1.3,20.5c0.1,4.5,2.2,6.8,6.6,6.9 c23.1,0.1,46.1,0,69.9,0c0-3.7,0-7.2,0-10.8c-0.1-15.6,3.2-30.4,10.7-44.2c9.6-17.7,23.5-30.7,41.8-39.2c0.7-0.3,1.3-0.6,2.8-1.4 c-1.8-0.1-2.8-0.3-3.8-0.3c-14.3,0-28.7,0.1-43-0.1c-2.4,0-5.4-0.1-7.2-1.4c-3.2-2.3-5.6-1.4-8.7-0.2c-3.1,1.2-6.6,1.6-9.9,1.6 c-32.2,0.1-64.4,0.2-96.5,0c-4.5,0-6.7,1.4-7.3,5.6C112,176.8,115.1,179.1,118.4,181.1z M164.6,156.3c15.5,0,30.9-0.2,46.4,0.1 c10.3,0.2,14.1-4.3,12-14.8c-2.6-13-13.7-22.9-27.1-23.3c-18.6-0.5-37.1-0.3-55.7-0.2c-0.9,0-2.3,0.6-2.7,1.4 c-6.1,12.1-12.2,24.2-18.5,36.9C134.7,156.3,149.7,156.3,164.6,156.3z M340.4,143.7c-1.1-0.1-2.2-0.1-3.4-0.1 c-32.4,0-64.8,0-97.3,0c-0.9,0-1.7,0-2.9,0c0,4.2,0,8.2,0,12.5c38,0,76.1,0,114.2,0C351.3,149.7,346.7,144.4,340.4,143.7z M144.1,212.4c0.5,0.8,2,1.4,3.1,1.4c18.6,0.1,37.2,0.1,55.8,0c5.4,0,7.7-2.4,8-7.7c0.1-1.1,0.1-2.2,0-3.4 c-0.2-5.8-2.5-8.1-8.3-8.1c-18,0-35.9,0-53.9,0c-5.1,0-10.2,0-15.5,0C136.9,200.8,140.4,206.6,144.1,212.4z M96.1,136.1 c10.4-0.2,21.7-5.4,24.8-17.3c0.6-2.4-0.8-5.9-2.3-8.2c-4-6.1-14.2-10.8-22.5-11C96.1,111.7,96.1,123.9,96.1,136.1z M63.7,239.6 c-5.6-0.1-10.4,3.5-11.9,8.8c-1.7,5.8,0.8,11.8,6,14.7c5.1,2.8,11.4,1.9,15.4-2.3c4.1-4.3,4.5-10.2,1-16 C68.1,246.3,66.2,245.4,63.7,239.6z"></path> <path fill="#FFFFFF" d="M319.5,226.6c14,0,25.5,11.5,25.5,25.4c0.1,14-11.9,25.8-25.8,25.6c-14-0.2-25.3-11.8-25.2-25.7 C294.2,237.9,305.5,226.6,319.5,226.6z M306.8,251.8c-0.1,7.1,5.6,13,12.6,13s12.9-6,12.8-12.9s-5.8-12.5-12.7-12.5 C312.5,239.4,306.9,244.8,306.8,251.8z"></path> </g> </svg> 