<?xml version="1.0" encoding="UTF-8"?> <svg xmlns="http://www.w3.org/2000/svg" overflow="visible" version="1.2" viewBox="0 0 479.9 480" xml:space="preserve"> <path d="m444.4 76.9c-2.1 10.1-4.3 20.2-6.4 30.4-12.2 61.7-24.2 123.4-36.3 185.1-6.5 33.1-13 66.3-19.6 99.4-3.2 16.3-18.8 22.7-32.5 13.3l-69.9-48.3c-1.2-0.8-2.4-1.7-3.9-2.6-5.3 5.9-10.6 11.6-15.8 17.4-12 13.3-23.9 26.4-35.8 39.8-3.4 3.9-7.4 5.7-12.3 4.1-4.5-1.4-6.7-5.2-7-11.4-1.7-32-3.4-64.1-5-96.1-0.2-3.4-1.1-5-4.6-6-48.2-14.4-96.1-29-144.3-43.6-8.1-2.4-13.4-7.5-15.1-15.8-1.5-7.6 1-14 6.8-18.9 2.2-1.8 4.9-3.2 7.6-4.2 109.3-44.6 218.6-89 327.9-133.5 16.4-6.6 32.8-13.4 49.1-20 8.7-3.5 12.5-2.3 17.1 5.6v5.3zm-82.4 311.9c18.3-93.2 36.5-185.8 54.7-278.5-0.3-0.1-0.6-0.3-0.8-0.4-63.5 61.3-126.9 122.6-190.6 184.2 45.7 31.7 90.9 63 136.7 94.7zm32.7-286.1c-0.3-0.4-0.6-0.8-0.9-1.2-112 45.6-224 91.2-336.6 137.1l3.2 1.2c47.7 14.4 95.4 28.8 143.1 43.3 2.7 0.8 4.1 0 5.8-1.7 60.6-58.7 121.3-117.4 181.9-176.1 0.9-1 2.3-1.7 3.5-2.6zm-170.7 278.1c12-13.3 23.3-25.8 34.9-38.6-12.8-8.8-25.2-17.4-38.4-26.5 1.2 22.1 2.3 43 3.5 65.1z" fill="#fff"></path> </svg> 