<?xml version="1.0" encoding="UTF-8"?> <svg xmlns="http://www.w3.org/2000/svg" overflow="visible" version="1.2" viewBox="0 0 479.9 480" xml:space="preserve"> <g fill="#fff"> <path d="m46.6 433.8c7-25.8 13.9-50.8 20.7-75.8 1.9-6.9 3.9-13.7 5.5-20.6 0.4-1.7 0.2-4.1-0.6-5.6-18.1-32.9-26.4-68.2-23.6-105.6 4.8-63 33.8-112.6 86-148 34.8-23.6 73.9-34.5 115.8-31.5 75.9 5.5 132.2 42.8 164 111.7 31 67.3 23.5 133.2-19.7 193.5-31.1 43.3-74.2 68.6-127.1 76.5-40.9 6.1-79.8-0.9-116.6-19.8-1.7-0.9-4.2-1-6-0.5-31.4 8.1-62.7 16.3-94 24.5-1.2 0.5-2.5 0.7-4.4 1.2zm46.1-45.7c1.2-0.2 1.7-0.3 2.2-0.4 17.7-4.6 35.4-9.2 53-14 3.6-1 6.5-0.6 9.8 1.4 35.5 21.1 73.7 28.1 114.1 19.8 85.4-17.5 140.3-98.3 125.7-184.2-12.5-72.9-75.5-128.7-149.2-131.8-40.8-1.7-77.4 10-108.9 35.9-36 29.7-55.7 68.2-58.6 114.8-2.1 34.3 6.5 66.1 25.1 95.1 2.1 3.4 2.6 6.2 1.5 10.1-5 17.5-9.7 35.1-14.7 53.3z"></path> <path d="m177.8 150c8.7-2.3 12.7 3.1 15.6 10.7 4.3 11.2 9 22.1 13.7 33.1 1.6 3.7 1.5 7-0.9 10.2-3.9 5.2-7.6 10.4-11.7 15.4-2.6 3.1-3 6-0.9 9.5 15.7 26.5 37.6 45.7 66.3 57.1 3.7 1.5 6.8 0.9 9.4-2.3 4.9-6.1 10-12 14.6-18.2 2.7-3.6 5.9-4.7 9.8-2.9 13.6 6.4 27.2 12.8 40.7 19.6 1.6 0.8 3 3.9 3 5.9-0.3 20.4-6.3 30.2-28.2 39.4-12.4 5.2-25.2 3.9-38 0.4-46.1-12.9-80.2-41.9-107.4-80.1-8.6-12-16.3-24.4-19.6-39-4.6-20.8 0.5-38.8 15.8-53.8 5-4.8 10.8-6 17.8-5z"></path> </g> </svg> 