<?xml version="1.0" encoding="UTF-8"?> <svg xmlns="http://www.w3.org/2000/svg" xmlns:xlink="http://www.w3.org/1999/xlink" version="1.2" id="Layer_1" x="0px" y="0px" viewBox="0 0 383.4 389" overflow="visible" xml:space="preserve"> <g> <path fill="#FFFFFF" d="M383.4,242.3c-1.9,2.6-4.4,3.4-7.5,3.3c-5.6-0.1-11.3,0.1-16.9-0.1c-2,0-3.1,0.6-3.9,2.5 c-6.9,14.9-18.9,22.9-35.2,22.9c-16.2,0-28-8-34.8-22.8c-1-2.1-2.1-2.6-4.2-2.6c-55,0-110,0-165,0c-2.2,0-3.3,0.7-4.1,2.8 c-2.7,6.7-7.2,12-13.2,15.9c-21.1,13.7-46.2,6.4-56.9-16.3c-0.4-0.9-1.2-2-2.1-2.3c-8-3-16.2-5.6-24.2-8.9 C5.3,232.6,0.1,224.7,0,213.8c-0.1-16.5,0-32.9,0-49.4c0-5.5,1.7-7.4,7-8.2c8.5-1.3,17.1-2.2,25.6-3.8c6.9-1.2,14.1-0.8,20.6-4.6 c33.3-19.6,69.4-29.3,108.1-29.8c29.3-0.4,58,3,85.2,14.1c16,6.5,31.2,15.1,46.8,22.7c1.7,0.8,3.7,1.5,5.6,1.6 c18.1,0.8,35.7,4.2,52.5,11.2c13.3,5.5,26.9,10.7,32,26.2C383.4,209.9,383.4,226.1,383.4,242.3z M179.4,232.5c34,0,67.9,0,102.1,0 c0.6-12.8,6-23.3,16.4-30.9c6.7-4.9,14.5-7.3,22.8-7.1c20,0.4,32.7,13.1,38.1,38.1c3.9,0,7.9,0,12.4,0c0-1.9,0-3.7,0-5.5 c0-8,0-16,0-23.9c0-7.9-3.4-13.4-10.4-17.2c-20.9-11.2-43.1-17-66.8-17c-37.2-0.1-74.5,0-111.7,0c-0.9,0-1.7,0-3,0 C179.4,190.4,179.4,211.3,179.4,232.5z M166.3,169c-1.5,0-2.8,0-4.1,0c-21.2,0-42.5-0.1-63.7,0c-3.5,0-6.2-1-8.7-3.5 c-4.2-4.4-8.7-8.6-12.9-13c-1.5-1.6-2.8-1.8-4.5-0.7c-1.1,0.7-2.5,1.1-3.6,1.9c-12.1,8.9-26.3,10.7-40.6,12.3 c-5,0.5-9.9,1.4-15,2.1c0,2.3,0,4.5,0,7.2c6.1,0,12.3,0,18.7,0c0,4.4,0,8.4,0,12.8c-6.2,0-12.4,0-18.8,0c0,9.7-0.4,18.9,0.2,28.1 c0.2,2.7,2.7,6.3,5.1,7.6c6.2,3.4,12.9,5.7,19.6,8.6c0.7-3.7,1.1-6.9,2-9.9C44.7,205,62,193,79.6,194.6 c18.9,1.8,33.9,16.5,35.3,34.8c0.2,2.1,0.3,3.5,3,3.5c15.5-0.1,31-0.1,46.5-0.1c0.5,0,1-0.1,1.9-0.3 C166.3,211.3,166.3,190.4,166.3,169z M102.3,233.1c0.1-14.1-11.6-25.9-25.6-25.8c-14,0.1-25.6,11.7-25.5,25.5 c0.1,14,11.5,25.4,25.5,25.5C90.7,258.4,102.2,247.1,102.3,233.1z M345.6,232.5c-0.5-14.2-12.1-25.6-25.8-25.3 c-14.1,0.3-25.6,11.9-25.4,25.7c0.2,14.3,12,25.7,26,25.3C334.6,257.9,346.1,246.2,345.6,232.5z M87.5,145.1 c3.8,3.8,7.2,7.2,10.8,10.6c0.4,0.4,1.4,0.5,2.1,0.5c21.8,0,43.7,0,65.8,0c0-8.4,0-16.7,0-25.5C139.1,130.3,113.2,135,87.5,145.1z M179.5,131c0,8.4,0,16.5,0,25c29.4,0,58.8,0,89.3,0C240.3,140.7,211,132.5,179.5,131z"></path> <path fill="#FFFFFF" d="M198.7,188c8.4,0,16.5,0,25,0c0-4.1,0-8.1,0-12.4c-8.3,0-16.5,0-25,0C198.7,179.6,198.7,183.5,198.7,188z"></path> </g> </svg> 