<?xml version="1.0" encoding="UTF-8"?> <svg xmlns="http://www.w3.org/2000/svg" overflow="visible" version="1.2" viewBox="0 0 479.9 480" xml:space="preserve"> <path d="m335.6 433.2c-5.4-0.9-10.9-1.6-16.3-2.6-21-3.9-40.7-11.8-59.7-21.2-31.3-15.4-60.3-34.2-86.4-57.3-52.2-46.3-93.6-100.3-116.8-166.9-5.7-16.5-9.2-33.4-8.8-50.9 0.4-16.9 5.9-31.8 17.8-43.9 10.6-10.8 20.8-21.9 32.2-31.8 18.4-16 37.3-15.8 54.9 0.8 17.8 16.8 35 34.3 51.7 52.2 13.8 14.7 13.7 34.6 0.2 49.5-9.4 10.4-19.6 20.2-29.6 30-2 1.9-2.2 3.3-1 5.8 10 20.9 24.4 38.5 40.1 55.3 15.9 17.1 33.4 32.3 53.1 44.9 5.2 3.3 10.8 5.9 16.1 9.1 2.1 1.3 3.4 1 5.1-0.7 8.3-8.5 16.8-17 25.3-25.4 6.6-6.6 14-11.9 23.5-13.4 12.8-2.1 23.6 2 32.6 10.9 16.4 16.1 32.6 32.4 48.8 48.7 17.4 17.5 18.9 37.4 2.7 56-11.2 12.9-23.5 24.8-35.9 36.5-8.8 8.3-19.9 12.4-32 13.8-0.9 0.1-1.7 0.5-2.5 0.7-5-0.1-10.1-0.1-15.1-0.1zm-268.5-298.7c0.1 20.8 5 37.3 11.2 53.6 17.2 45.9 44.9 85.1 77.9 120.8 32.2 34.7 69.7 62.4 112.3 83.2 21.2 10.4 43 18.8 66.7 21.3 14.4 1.5 28.1-0.2 39-10.6 11.1-10.7 21.9-21.8 32.4-33.2 8.4-9.2 8.3-18.6-0.4-27.5-16.8-17.2-33.8-34.1-50.9-50.9-6.9-6.8-15.9-6.9-23.6-0.9-1.8 1.4-3.4 3-5 4.6-9.4 9.3-18.6 18.7-28 28-6.1 6-12.7 7.1-20.3 3.2-5.5-2.8-11-5.6-16.2-8.8-24.9-14.9-46.5-33.8-65.9-55.2-16.2-17.8-31-36.6-41-58.8-5.2-11.4-4.2-16.4 4.8-25.1 9.8-9.4 19.5-18.9 28.8-28.8 7.9-8.5 7.9-17.4-0.2-25.8-12.3-12.9-25-25.4-37.6-38.1-4.6-4.6-9.2-9.3-14.1-13.6-7.6-6.8-16.3-6.9-24.3-0.6-1.6 1.2-3.1 2.6-4.5 4-8.7 8.7-17.3 17.5-26.2 26.1-10.3 10-15.3 22-14.9 33.1z" fill="#F20000"></path> </svg> 