<?xml version="1.0" encoding="UTF-8"?> <!-- Generator: Adobe Illustrator 26.0.2, SVG Export Plug-In . SVG Version: 6.00 Build 0) --> <svg xmlns="http://www.w3.org/2000/svg" xmlns:xlink="http://www.w3.org/1999/xlink" version="1.1" id="Ebene_1" x="0px" y="0px" viewBox="0 0 425.2 200.69" overflow="visible" xml:space="preserve"> <path fill="#F20000" d="M390.93,0H34.27C15.38,0,0,15.36,0,34.25v132.2c0,18.88,15.38,34.25,34.27,34.25h356.66 c18.89,0,34.26-15.36,34.26-34.25V34.25C425.2,15.36,409.83,0,390.93,0z"></path> <g> <path fill="#FFFFFF" d="M38.14,109.39h-7.07v61.04h7.07c8.3,0,12.79-1.66,15.2-6.31c2.33-4.65,2.65-12.2,2.65-24.16 c0-11.96-0.32-19.6-2.65-24.25C50.94,111.05,46.44,109.39,38.14,109.39z M46.6,151.65c-0.08,2.9-0.41,5.07-0.83,6.48 c-0.91,2.98-2.66,3.32-5.73,3.32v-43.1c3.07,0,4.82,0.33,5.73,3.23c0.42,1.51,0.75,3.66,0.83,6.49c0.1,2.9,0.1,6.8,0.1,11.79 C46.7,144.84,46.7,148.74,46.6,151.65z"></path> <polygon fill="#FFFFFF" points="139.91,83.31 128.03,83.31 128.03,30.57 119.06,30.57 119.06,91.62 139.91,91.62 "></polygon> <path fill="#FFFFFF" d="M163.59,90.21c1.66-1.24,2.83-2.83,3.57-4.48c0.92-1.92,1.41-4.16,1.5-6.66v-48.5h-8.98v48.5 c0,0.92-0.08,1.67-0.33,2.25c-0.33,1.24-1.08,2.24-2.66,2.24c-0.75,0-1.33-0.25-1.74-0.67c-0.83-0.9-1.25-2.06-1.25-3.82v-48.5 h-8.97v48.5c0.08,2.5,0.58,4.74,1.49,6.66c0.75,1.65,1.83,3.23,3.49,4.48c1.67,1.33,3.99,2.08,6.98,2.08 C159.68,92.28,161.93,91.54,163.59,90.21z"></path> <path fill="#FFFFFF" d="M171.65,110.79c-1.66-1.24-3.9-2.07-6.89-2.07c-2.99,0-5.32,0.83-6.98,2.07c-1.66,1.25-2.74,2.91-3.49,4.57 c-0.92,1.91-1.41,4.16-1.49,6.56v35.96c0.08,2.5,0.58,4.74,1.49,6.65c0.75,1.66,1.83,3.23,3.49,4.48c1.66,1.33,3.99,2.07,6.98,2.07 c2.99,0,5.23-0.74,6.89-2.07c1.67-1.25,2.83-2.83,3.58-4.48c0.92-1.91,1.41-4.15,1.5-6.65v-35.96c-0.08-2.41-0.58-4.65-1.5-6.56 C174.48,113.7,173.32,112.04,171.65,110.79z M167.76,157.88c0,0.91-0.09,1.67-0.34,2.24c-0.33,1.25-1.08,2.25-2.66,2.25 c-0.75,0-1.33-0.25-1.74-0.67c-0.84-0.92-1.25-2.07-1.25-3.82v-35.96c0-0.83,0.09-1.58,0.33-2.24c0.33-1.09,1.08-2.25,2.66-2.25 c0.75,0,1.41,0.25,1.83,0.66c0.83,1,1.17,2.16,1.17,3.82V157.88z"></path> <path fill="#FFFFFF" d="M197.1,87.62c1.91-2.82,2.57-6.64,2.57-10.71c0-3.32-1.09-6.47-2.66-9.54c-1.58-3.08-3.67-6.23-5.74-9.3 c-1.74-2.58-3.49-4.99-4.81-7.32c-1.33-2.32-2.25-4.48-2.25-6.55c0-3.57,0.75-5.98,3.07-6.06c1.42,0,2.33,1.16,2.91,2.82 c0.58,1.74,0.67,3.98,0.67,5.98l8.81-0.83c0-3.41-0.5-7.47-2.25-10.8c-1.74-3.25-4.9-5.49-10.31-5.4 c-4.23,0.09-7.14,1.99-9.05,4.65c-1.91,2.74-2.66,6.32-2.66,9.64c0,1.65,0.25,3.31,0.75,4.9c0.91,3.24,2.41,6.39,4.4,9.46 c1.99,3.08,3.9,5.9,5.65,8.39c0.83,1.25,1.57,2.49,2.33,3.65c1.34,2.4,2.32,4.73,2.32,6.72c0,3.91-0.99,6.73-3.66,6.73 c-1.91,0-2.9-1.33-3.48-3.32c-0.67-1.91-0.76-4.48-0.76-7.06l-8.81,0.83c0,4.56,0.42,8.97,2.25,12.3c1.83,3.32,5.07,5.48,10.8,5.48 C192.11,92.28,195.18,90.45,197.1,87.62z"></path> <path fill="#FFFFFF" d="M76.63,31.99c-1.66-1.24-3.9-2.07-6.89-2.07c-2.99,0-5.32,0.83-6.99,2.07c-1.66,1.25-2.74,2.91-3.48,4.57 c-0.92,1.91-1.42,4.15-1.5,6.55v35.96c0.08,2.5,0.59,4.74,1.5,6.66c0.75,1.65,1.82,3.23,3.48,4.48c1.67,1.33,4,2.08,6.99,2.08 c2.99,0,5.23-0.74,6.89-2.08c1.66-1.24,2.82-2.83,3.58-4.48c0.9-1.92,1.41-4.16,1.49-6.66v-8.38h-8.39v8.38 c0,0.92-0.08,1.67-0.33,2.25c-0.42,1.24-1.16,2.24-3.07,2.24c-0.75,0-1.33-0.25-1.75-0.67c-0.84-0.9-1.33-2.06-1.41-3.82V43.11 c0.08-0.83,0.16-1.57,0.41-2.23c0.41-1.09,1.16-2.24,2.74-2.24c0.91,0,1.66,0.24,2.07,0.66c0.92,1,1.34,2.16,1.34,3.81v8.4h8.39 v-8.4c-0.08-2.4-0.59-4.64-1.49-6.55C79.46,34.89,78.29,33.24,76.63,31.99z"></path> <rect x="66.11" y="109.39" fill="#FFFFFF" width="8.97" height="61.04"></rect> <path fill="#FFFFFF" d="M201.85,157.88c0,0.91-0.08,1.67-0.33,2.24c-0.34,1.25-1.09,2.25-2.66,2.25c-0.75,0-1.33-0.25-1.75-0.67 c-0.83-0.92-1.25-2.07-1.25-3.82v-48.49h-8.97v48.49c0.08,2.5,0.58,4.74,1.5,6.65c0.74,1.66,1.82,3.23,3.48,4.48 c1.67,1.33,3.99,2.07,6.99,2.07c2.99,0,5.23-0.74,6.88-2.07c1.67-1.25,2.83-2.83,3.58-4.48c0.91-1.91,1.41-4.15,1.49-6.65v-48.49 h-8.97V157.88z"></path> <polygon fill="#FFFFFF" points="103.49,55.82 96.51,55.82 96.51,30.57 87.54,30.57 87.54,91.62 96.51,91.62 96.51,65.04 103.49,65.04 103.49,91.62 112.46,91.62 112.46,30.57 103.49,30.57 "></polygon> <path fill="#FFFFFF" d="M97.7,116.94c1.41,0,2.33,1.16,2.91,2.83c0.59,1.73,0.67,3.98,0.67,5.97l8.8-0.83 c0-3.41-0.5-7.48-2.24-10.8c-1.74-3.24-4.9-5.48-10.3-5.39c-4.23,0.08-7.15,1.99-9.06,4.64c-1.91,2.74-2.66,6.32-2.66,9.64 c0,1.66,0.25,3.31,0.75,4.89c0.92,3.24,2.41,6.4,4.4,9.47c1.99,3.07,3.91,5.9,5.65,8.39c0.83,1.24,1.58,2.49,2.33,3.65 c1.34,2.41,2.33,4.74,2.33,6.72c0,3.91-0.99,6.74-3.65,6.74c-1.91,0-2.91-1.34-3.49-3.32c-0.66-1.92-0.75-4.49-0.75-7.07 l-8.81,0.83c0,4.57,0.42,8.98,2.25,12.3c1.82,3.32,5.06,5.47,10.8,5.47c4.9,0,7.98-1.83,9.89-4.65c1.91-2.82,2.57-6.63,2.57-10.71 c0-3.32-1.08-6.47-2.66-9.54c-1.58-3.08-3.65-6.24-5.73-9.31c-1.75-2.58-3.49-4.99-4.82-7.31c-1.32-2.32-2.25-4.48-2.25-6.55 C94.62,119.43,95.38,117.02,97.7,116.94z"></path> <path fill="#FFFFFF" d="M138.19,110.79c-1.66-1.24-3.91-2.07-6.9-2.07c-2.99,0-5.32,0.83-6.98,2.07c-1.66,1.25-2.74,2.91-3.49,4.57 c-0.92,1.91-1.41,4.16-1.49,6.56v35.96c0.08,2.5,0.58,4.74,1.49,6.65c0.74,1.66,1.83,3.23,3.49,4.48c1.66,1.33,3.99,2.07,6.98,2.07 c2.99,0,5.24-0.74,6.9-2.07c1.67-1.25,2.83-2.83,3.57-4.48c0.92-1.91,1.4-4.15,1.49-6.65v-8.38h-8.39v8.38 c0,0.91-0.09,1.67-0.33,2.24c-0.42,1.25-1.17,2.25-3.08,2.25c-0.75,0-1.33-0.25-1.74-0.67c-0.84-0.92-1.33-2.07-1.42-3.82v-35.96 c0.09-0.83,0.17-1.58,0.42-2.24c0.42-1.09,1.16-2.25,2.74-2.25c0.92,0,1.67,0.25,2.08,0.66c0.91,1,1.33,2.16,1.33,3.82v8.39h8.39 v-8.39c-0.09-2.41-0.58-4.65-1.49-6.56C141.02,113.7,139.86,112.04,138.19,110.79z"></path> <path fill="#FFFFFF" d="M345.35,52.92l-0.2,0l-0.19,0c-3.83-0.12-10.73,1.22-12.01,12.04c-0.55,4.64,0.23,8.83,1.13,11.85 c6.39-0.75,13.98-1.03,22.22-0.22c0.87-2.99,1.6-7.1,1.07-11.63C356.08,54.14,349.24,52.8,345.35,52.92z"></path> <path fill="#FFFFFF" d="M392.04,28.58h-92.33c-3.33,0-6.04,2.35-6.04,5.24V140.8c0,2.87,2.21,6.59,4.9,8.28l35.29,21.97 c11.03,5.77,12.01,6.48,24.01,0l35.3-21.97c2.7-1.68,4.91-5.4,4.91-8.28V33.82C398.08,30.93,395.36,28.58,392.04,28.58z M377.3,133.91c0,0-38.05,7.33-62.86-1.25c0-30.46,0-51.53,0-51.53s3.59-1.33,9.55-2.63c-1.05-3.95-1.81-9.06-1.14-14.73 c1.88-15.92,12.66-21.32,22.29-21c9.68-0.26,20.41,5.08,22.29,21c0.65,5.5-0.04,10.48-1.04,14.38c3.58,0.75,7.22,1.7,10.91,2.98 C377.3,133.05,377.3,133.91,377.3,133.91z"></path> <path fill="#FFFFFF" d="M49.94,87.62c1.92-2.82,2.58-6.64,2.58-10.71c0-3.32-1.09-6.47-2.66-9.54c-1.58-3.08-3.66-6.23-5.73-9.3 c-1.74-2.58-3.49-4.99-4.82-7.32c-1.33-2.32-2.25-4.48-2.25-6.55c0-3.57,0.75-5.98,3.07-6.06c1.42,0,2.32,1.16,2.9,2.82 c0.59,1.74,0.67,3.98,0.67,5.98l8.81-0.83c0-3.41-0.5-7.47-2.25-10.8c-1.74-3.25-4.9-5.49-10.3-5.4c-4.24,0.09-7.15,1.99-9.05,4.65 c-1.91,2.74-2.66,6.32-2.66,9.64c0,1.65,0.25,3.31,0.75,4.9c0.91,3.24,2.41,6.39,4.4,9.46c2,3.08,3.9,5.9,5.66,8.39 c0.82,1.25,1.58,2.49,2.32,3.65c1.32,2.4,2.32,4.73,2.32,6.72c0,3.91-1,6.73-3.66,6.73c-1.91,0-2.91-1.33-3.49-3.32 c-0.66-1.91-0.75-4.48-0.75-7.06l-8.81,0.83c0,4.56,0.42,8.97,2.24,12.3c1.84,3.32,5.08,5.48,10.81,5.48 C44.96,92.28,48.03,90.45,49.94,87.62z"></path> <path fill="#FFFFFF" d="M390.93,4.13H34.27c-16.62,0-30.14,13.51-30.14,30.11v132.2c0,16.6,13.52,30.11,30.14,30.11h356.66 c16.62,0,30.13-13.51,30.13-30.11V34.25C421.07,17.65,407.55,4.13,390.93,4.13z M416.76,166.45c0,14.23-11.59,25.81-25.83,25.81 H34.27c-14.24,0-25.82-11.58-25.82-25.81V34.25c0-14.22,11.59-25.81,25.82-25.81h112.7v16.74h7.73V8.44h3.99v16.74h7.72V8.44 h224.52c14.24,0,25.83,11.58,25.83,25.81V166.45z"></path> <path fill="#FFFFFF" d="M352.44,100.88c0-3.62-2.95-6.56-6.57-6.56c-3.63,0-6.57,2.94-6.57,6.56c0,2.4,1.29,4.47,3.21,5.62 c-0.8,3.04-1.57,6.35-1.57,7.83c0,3.89,2.21,4.05,4.93,4.05c2.71,0,4.94-0.16,4.94-4.05c0-1.48-0.78-4.79-1.58-7.83 C351.15,105.36,352.44,103.28,352.44,100.88z"></path> <polygon fill="#FFFFFF" points="239.27,144.01 238.78,144.01 238.03,141.19 229.3,109.39 221.33,109.39 221.33,170.42 229.55,170.42 229.55,135.79 230.05,135.79 230.8,138.62 239.52,170.42 247.5,170.42 247.5,109.39 239.27,109.39 "></polygon> <polygon fill="#FFFFFF" points="270.41,30.57 261.45,30.57 261.45,91.61 282.3,91.61 282.3,83.31 270.41,83.31 "></polygon> <path fill="#FFFFFF" d="M227.25,87.62c1.9-2.82,2.58-6.64,2.58-10.71c0-3.32-1.08-6.47-2.66-9.54c-1.57-3.08-3.65-6.23-5.73-9.3 c-1.74-2.58-3.49-4.99-4.82-7.32c-1.33-2.32-2.25-4.48-2.25-6.55c0-3.57,0.76-5.98,3.08-6.06c1.41,0,2.32,1.16,2.9,2.82 c0.58,1.74,0.67,3.98,0.67,5.98l8.81-0.83c0-3.41-0.51-7.47-2.25-10.8c-1.74-3.25-4.9-5.49-10.3-5.4 c-4.25,0.09-7.15,1.99-9.06,4.65c-1.91,2.74-2.66,6.32-2.66,9.64c0,1.65,0.25,3.31,0.75,4.9c0.92,3.24,2.41,6.39,4.4,9.46 c2,3.08,3.91,5.9,5.65,8.39c0.83,1.25,1.58,2.49,2.33,3.65c1.33,2.4,2.33,4.73,2.33,6.72c0,3.91-0.99,6.73-3.66,6.73 c-1.91,0-2.91-1.33-3.49-3.32c-0.66-1.91-0.75-4.48-0.75-7.06l-8.8,0.83c0,4.56,0.41,8.97,2.24,12.3c1.83,3.32,5.07,5.48,10.8,5.48 C222.26,92.28,225.34,90.45,227.25,87.62z"></path> <polygon fill="#FFFFFF" points="235.38,91.62 255.89,91.62 255.89,82.39 244.34,82.39 244.34,65.62 252.66,65.62 252.66,55.82 244.34,55.82 244.34,39.79 255.89,39.79 255.89,30.57 235.38,30.57 "></polygon> <polygon fill="#FFFFFF" points="256.38,118.6 264.85,118.6 264.85,170.42 273.82,170.42 273.82,118.6 282.3,118.6 282.3,109.39 256.38,109.39 "></polygon> </g> </svg> 